<svg width="24" height="24" viewBox="0 0 24 24" fill="none" xmlns="http://www.w3.org/2000/svg">
<g clip-path="url(#clip0_748_12)">
<path d="M12.9991 13.7401C12.6951 13.9157 12.3502 14.0081 11.9991 14.0081C11.6481 14.0081 11.3032 13.9157 10.9991 13.7401L2.49914 8.87014C2.34524 8.78292 2.21723 8.65644 2.12817 8.5036C2.03911 8.35076 1.99219 8.17703 1.99219 8.00014C1.99219 7.82324 2.03911 7.64951 2.12817 7.49667C2.21723 7.34383 2.34524 7.21735 2.49914 7.13014L10.9991 2.26014C11.3032 2.0846 11.6481 1.99219 11.9991 1.99219C12.3502 1.99219 12.6951 2.0846 12.9991 2.26014L21.4991 7.13014C21.653 7.21735 21.781 7.34383 21.8701 7.49667C21.9592 7.64951 22.0061 7.82324 22.0061 8.00014C22.0061 8.17703 21.9592 8.35076 21.8701 8.5036C21.781 8.65644 21.653 8.78292 21.4991 8.87014L12.9991 13.7401Z" stroke="white" stroke-width="2" stroke-linecap="round" stroke-linejoin="round"/>
<path d="M19.9991 14.2852L21.4991 15.1302C21.653 15.2174 21.781 15.3439 21.8701 15.4967C21.9592 15.6495 22.0061 15.8233 22.0061 16.0002C22.0061 16.1771 21.9592 16.3508 21.8701 16.5036C21.781 16.6565 21.653 16.7829 21.4991 16.8702L12.9991 21.7402C12.6951 21.9157 12.3502 22.0081 11.9991 22.0081C11.6481 22.0081 11.3032 21.9157 10.9991 21.7402L2.49914 16.8702C2.34524 16.7829 2.21723 16.6565 2.12817 16.5036C2.03911 16.3508 1.99219 16.1771 1.99219 16.0002C1.99219 15.8233 2.03911 15.6495 2.12817 15.4967C2.21723 15.3439 2.34524 15.2174 2.49914 15.1302L3.99914 14.2852" stroke="white" stroke-width="2" stroke-linecap="round" stroke-linejoin="round"/>
</g>
<defs>
<clipPath id="clip0_748_12">
<rect width="24" height="24" fill="white"/>
</clipPath>
</defs>
</svg>
