<svg width="24" height="24" viewBox="0 0 24 24" fill="none" xmlns="http://www.w3.org/2000/svg">
<path d="M12.8305 2.17987C12.5699 2.06102 12.2868 1.99951 12.0005 1.99951C11.7141 1.99951 11.431 2.06102 11.1705 2.17987L2.60045 6.07987C2.423 6.15811 2.27213 6.28627 2.16621 6.44873C2.0603 6.61118 2.00391 6.80093 2.00391 6.99487C2.00391 7.1888 2.0603 7.37855 2.16621 7.54101C2.27213 7.70347 2.423 7.83162 2.60045 7.90987L11.1805 11.8199C11.441 11.9387 11.7241 12.0002 12.0105 12.0002C12.2968 12.0002 12.5799 11.9387 12.8405 11.8199L21.4205 7.91987C21.5979 7.84163 21.7488 7.71347 21.8547 7.55101C21.9606 7.38855 22.017 7.1988 22.017 7.00487C22.017 6.81093 21.9606 6.62118 21.8547 6.45872C21.7488 6.29627 21.5979 6.16811 21.4205 6.08987L12.8305 2.17987Z" stroke="white" stroke-width="2" stroke-linecap="round" stroke-linejoin="round"/>
<path d="M2 12C1.99953 12.1913 2.05392 12.3787 2.15672 12.5399C2.25952 12.7012 2.40642 12.8297 2.58 12.91L11.18 16.82C11.4392 16.9374 11.7205 16.9981 12.005 16.9981C12.2895 16.9981 12.5708 16.9374 12.83 16.82L21.41 12.92C21.587 12.8404 21.737 12.7111 21.8418 12.5477C21.9466 12.3844 22.0015 12.1941 22 12" stroke="white" stroke-width="2" stroke-linecap="round" stroke-linejoin="round"/>
<path d="M2 17C1.99953 17.1913 2.05392 17.3787 2.15672 17.5399C2.25952 17.7012 2.40642 17.8297 2.58 17.91L11.18 21.82C11.4392 21.9374 11.7205 21.9981 12.005 21.9981C12.2895 21.9981 12.5708 21.9374 12.83 21.82L21.41 17.92C21.587 17.8404 21.737 17.7111 21.8418 17.5477C21.9466 17.3844 22.0015 17.1941 22 17" stroke="white" stroke-width="2" stroke-linecap="round" stroke-linejoin="round"/>
</svg>
