<svg width="24" height="24" viewBox="0 0 24 24" fill="none" xmlns="http://www.w3.org/2000/svg">
<path d="M13.0069 17.7479C12.7029 17.9235 12.358 18.0159 12.0069 18.0159C11.6559 18.0159 11.311 17.9235 11.0069 17.7479L2.50695 12.8779C2.35305 12.7907 2.22504 12.6643 2.13598 12.5114C2.04692 12.3586 2 12.1848 2 12.0079C2 11.8311 2.04692 11.6573 2.13598 11.5045C2.22504 11.3516 2.35305 11.2252 2.50695 11.1379L11.0069 6.26795C11.311 6.09241 11.6559 6 12.0069 6C12.358 6 12.7029 6.09241 13.0069 6.26795L21.5069 11.1379C21.6608 11.2252 21.7889 11.3516 21.8779 11.5045C21.967 11.6573 22.0139 11.8311 22.0139 12.0079C22.0139 12.1848 21.967 12.3586 21.8779 12.5114C21.7889 12.6643 21.6608 12.7907 21.5069 12.8779L13.0069 17.7479Z" stroke="white" stroke-width="2" stroke-linecap="round" stroke-linejoin="round"/>
</svg>
