<?xml version="1.0" encoding="UTF-8"?>
<svg width="1200" height="675" viewBox="0 0 1200 675" fill="none" xmlns="http://www.w3.org/2000/svg">
  <!-- Background -->
  <rect width="1200" height="675" fill="#F8FAFC"/>
  
  <!-- App window -->
  <rect x="100" y="50" width="1000" height="575" rx="12" fill="white" stroke="#E2E8F0" stroke-width="2"/>
  
  <!-- Title bar -->
  <rect x="100" y="50" width="1000" height="40" rx="12" fill="#F1F5F9"/>
  <circle cx="130" cy="70" r="6" fill="#FDA4AF"/>
  <circle cx="154" cy="70" r="6" fill="#FCD34D"/>
  <circle cx="178" cy="70" r="6" fill="#86EFAC"/>
  
  <!-- Sidebar -->
  <rect x="100" y="90" width="250" height="535" fill="#F8FAFC"/>
  <rect x="120" y="110" width="210" height="24" rx="4" fill="#E2E8F0"/>
  <rect x="120" y="144" width="180" height="16" rx="4" fill="#E2E8F0"/>
  <rect x="120" y="170" width="160" height="16" rx="4" fill="#E2E8F0"/>
  <rect x="120" y="196" width="190" height="16" rx="4" fill="#E2E8F0"/>
  
  <!-- Main content -->
  <rect x="370" y="110" width="710" height="495" rx="8" fill="white"/>
  
  <!-- Text content -->
  <rect x="390" y="130" width="400" height="24" rx="4" fill="#2563EB"/>
  <rect x="390" y="170" width="670" height="16" rx="4" fill="#E2E8F0"/>
  <rect x="390" y="196" width="640" height="16" rx="4" fill="#E2E8F0"/>
  <rect x="390" y="222" width="660" height="16" rx="4" fill="#E2E8F0"/>
  
  <!-- Highlights -->
  <rect x="390" y="270" width="670" height="40" rx="8" fill="#DBEAFE" fill-opacity="0.5"/>
  <rect x="410" y="282" width="200" height="16" rx="4" fill="#2563EB"/>
  
  <!-- AI suggestions -->
  <rect x="390" y="330" width="670" height="80" rx="8" fill="#F0FDF4" fill-opacity="0.5"/>
  <rect x="410" y="342" width="630" height="16" rx="4" fill="#E2E8F0"/>
  <rect x="410" y="368" width="610" height="16" rx="4" fill="#E2E8F0"/>
  
  <!-- References -->
  <rect x="390" y="430" width="670" height="60" rx="8" fill="#F8FAFC"/>
  <rect x="410" y="442" width="630" height="16" rx="4" fill="#E2E8F0"/>
  <rect x="410" y="468" width="610" height="16" rx="4" fill="#E2E8F0"/>
</svg>
