<svg width="5162" height="786" viewBox="0 0 5162 786" fill="none" xmlns="http://www.w3.org/2000/svg">
<g clip-path="url(#clip0_146_83)">
<g clip-path="url(#clip1_146_83)">
<path d="M1067.09 13.8816C1064.32 14.275 1059.85 13.1262 1057.46 14.3694C1057.24 14.4796 1057.55 18.9646 1057.46 19.1849C1026.91 90.0329 992.391 200.145 972.67 275.446C971.285 280.702 963.588 308.73 967.366 310.603C969.239 311.531 976.054 309.375 978.556 311.437C978.84 310.524 979.123 309.595 979.406 308.683L989.527 318.314L1098.41 317.354C1098.21 319.935 1098.98 319.998 1099.86 322.169C1097.56 321.98 1096.62 321.98 1094.55 323.129C1081.33 330.526 1015.81 436.546 1002.54 457.035L903.308 457.523C903.371 463.928 902.143 470.711 900.412 476.785C884.594 532.4 867.092 587.983 849.826 642.968L846.458 639.112C863.582 578.934 880.596 518.646 897.531 458.483L890.779 452.22C891.739 451.905 902.348 442.463 901.372 440.181C901.199 439.788 894.635 436.026 894.147 435.853C887.899 433.603 809.88 433.335 802.609 434.893C790.647 437.443 799.902 440.59 800.201 441.157C801.302 443.234 798.658 449.859 801.161 452.236C791.528 451.15 789.089 446.696 779.96 444.052L779 440.197L1061.31 1.84277L1066.13 0.882812C1064.18 5.19475 1066.79 9.75848 1067.09 13.8816Z" fill="#FCC845"/>
<path d="M1002.53 457.035C938.752 555.533 877.086 655.652 816.569 756.164C817.718 764.379 820.519 760.429 827.083 761.877C825.682 764.032 824.281 766.188 822.88 768.36L810.305 767.243C820.063 724.517 834.323 681.649 846.442 639.112L849.81 642.968C867.076 587.983 884.578 532.4 900.395 476.785C902.127 470.695 903.354 463.912 903.291 457.523L1002.53 457.035Z" fill="#FAAD46"/>
<path d="M1099.84 322.155C1101.24 325.648 1103.84 334.068 1102.74 337.561L827.099 761.878C820.535 760.43 817.734 764.38 816.585 756.165C877.102 655.653 938.768 555.534 1002.54 457.037C1015.81 436.547 1081.35 330.527 1094.55 323.13C1096.62 321.982 1097.56 321.966 1099.86 322.17L1099.84 322.155Z" fill="#9794C4"/>
<path d="M1067.09 13.8827C1067.45 18.7926 1068.69 16.8412 1067.09 24.4737C1048.78 111.735 1006.76 220.022 979.69 307.74L979.406 308.668C979.123 309.581 978.84 310.509 978.556 311.422C976.054 309.361 969.223 311.516 967.366 310.588C963.588 308.715 971.285 280.688 972.67 275.432C992.391 200.13 1026.91 90.034 1057.46 19.1703C1057.55 18.95 1057.24 14.4649 1057.46 14.3548C1059.86 13.1116 1064.32 14.2604 1067.09 13.8669V13.8827Z" fill="#BCC7DD"/>
<path d="M890.764 452.218C886.514 453.619 809.566 453.163 801.161 452.218C798.658 449.842 801.303 443.217 800.201 441.14C799.902 440.573 790.647 437.426 802.609 434.876C809.865 433.334 887.883 433.601 894.148 435.836C894.636 436.009 901.214 439.786 901.372 440.164C902.348 442.446 891.74 451.888 890.779 452.203L890.764 452.218Z" fill="#F59A41"/>
<path d="M971.08 311.136C1000.45 214.841 1038.49 121.348 1060.01 22.9918C1061.77 15.4223 1063.37 6.89281 1066 0C1066.79 1.54223 1075.98 19.4824 1075.98 19.4824C1053.51 120.42 1015.34 216.982 984.884 315.401C981.862 324.371 968.515 320.452 971.08 311.136Z" fill="#7699D0"/>
<path d="M1110.01 342.297L826.485 778.731L821.764 786.002L807.221 776.559L811.942 769.289L1095.47 332.855C1097.25 329.629 1099.02 326.324 1100.74 323.066C1102.91 323.916 1110.83 333.956 1112.69 336.931C1112.91 337.308 1113.02 337.576 1113 337.686C1112.36 338.678 1110.83 341.054 1110.01 342.297Z" fill="#5A67B0"/>
<path d="M893.345 459.994C890.827 460.655 888.073 460.765 885.554 460.875C880.014 461.064 873.939 461.19 868.462 461.237C848.961 461.379 825.982 461.269 806.45 460.718C802.877 460.56 798.643 460.261 795.102 460.372C792.867 457.822 783.581 447.436 780.417 443.848C785.816 443.974 797.809 443.879 804.372 444.241C809.251 444.493 818.695 444.635 823.684 444.729C844.113 444.981 868.855 445.075 888.199 444.461C891.693 444.493 898.413 444.603 901.136 444.619C899.137 447.609 898.209 459.081 895.077 460.01C894.604 460.01 893.849 460.01 893.345 460.01V459.994Z" fill="#4852A3"/>
</g>
<path d="M599.955 736H366.459L431.319 430.077H298.356L233.496 736H0L145.935 49.5649H380.512L316.733 347.921H448.615L512.394 49.5649H748.052L599.955 736ZM1480.78 439.806C1502.4 439.806 1520.42 430.798 1534.83 412.781C1549.97 394.764 1562.22 372.784 1571.59 346.84C1581.68 320.896 1588.88 293.871 1593.21 265.765C1597.53 237.659 1599.69 213.156 1599.69 192.257C1599.69 172.799 1596.45 156.584 1589.97 143.612C1583.48 129.919 1569.43 123.073 1547.81 123.073H1499.16L1431.06 439.806H1480.78ZM1415.92 508.99L1367.28 736H1133.78L1279.72 49.5649H1529.43C1570.51 49.5649 1607.98 51.727 1641.85 56.051C1675.72 60.375 1704.91 69.023 1729.41 81.995C1753.92 94.967 1773.01 113.704 1786.71 138.207C1800.4 161.989 1807.25 194.059 1807.25 234.416C1807.25 271.891 1801.12 307.564 1788.87 341.435C1777.34 374.586 1758.24 403.773 1731.58 428.996C1705.63 453.499 1671.76 472.957 1629.96 487.37C1588.16 501.783 1537.36 508.99 1477.54 508.99H1415.92ZM2455.42 212.796C2455.42 255.315 2443.53 294.592 2419.75 330.625C2395.97 366.658 2356.69 394.044 2301.92 412.781L2427.32 736H2186.25L2091.13 436.563H2079.24L2015.46 736H1781.96L1927.9 49.5649H2212.2C2245.35 49.5649 2276.7 51.727 2306.25 56.051C2335.79 59.6543 2361.38 67.5816 2383 79.8329C2405.34 91.3636 2422.99 107.939 2435.97 129.559C2448.94 150.458 2455.42 178.204 2455.42 212.796ZM2144.1 367.379C2162.83 367.379 2178.69 361.253 2191.66 349.002C2205.35 336.03 2216.16 320.536 2224.09 302.519C2232.74 284.502 2238.86 265.405 2242.47 245.226C2246.07 224.327 2247.87 206.31 2247.87 191.176C2247.87 172.439 2244.63 156.584 2238.14 143.612C2231.66 129.919 2217.6 123.073 2195.98 123.073H2147.34L2093.29 367.379H2144.1ZM3042.2 736H2789.25L2669.26 239.821L2563.32 736H2466.03L2611.97 49.5649H2870.33L2983.83 552.23L3090.85 49.5649H3190.3L3042.2 736ZM4620.24 131.721H4446.2L4317.56 736H4084.06L4212.7 131.721H4040.82L4060.28 49.5649H4638.61L4620.24 131.721ZM4707.46 49.5649H5162.56L5145.26 131.721H4924.74L4879.34 340.354H5064.19L5046.89 421.429H4862.04L4812.32 652.763H5032.84L5016.63 736H4561.52L4707.46 49.5649Z" fill="black"/>
<g clip-path="url(#clip2_146_83)">
<path d="M3952.39 411C3952.39 607.89 3792.78 771.5 3595.89 771.5C3399 771.5 3239.39 607.89 3239.39 411C3230.5 224.5 3299.28 96 3595.89 96C3892.5 96 3958.5 224.5 3952.39 411Z" fill="#DE0000"/>
<circle cx="3595.5" cy="370.496" r="356.5" fill="#FF0000"/>
<path d="M3539.75 257.5C3539.75 242.582 3545.68 228.274 3556.23 217.725C3566.77 207.176 3581.08 201.25 3596 201.25C3610.92 201.25 3625.23 207.176 3635.77 217.725C3646.32 228.274 3652.25 242.582 3652.25 257.5V381.25C3652.25 396.168 3646.32 410.476 3635.77 421.025C3625.23 431.574 3610.92 437.5 3596 437.5C3581.08 437.5 3566.77 431.574 3556.23 421.025C3545.68 410.476 3539.75 396.168 3539.75 381.25V257.5Z" fill="white"/>
<path d="M3506 347.5C3508.98 347.5 3511.85 348.685 3513.95 350.795C3516.06 352.905 3517.25 355.766 3517.25 358.75V381.25C3517.25 402.136 3525.55 422.166 3540.32 436.935C3555.08 451.703 3575.11 460 3596 460C3616.89 460 3636.92 451.703 3651.68 436.935C3666.45 422.166 3674.75 402.136 3674.75 381.25V358.75C3674.75 355.766 3675.94 352.905 3678.05 350.795C3680.15 348.685 3683.02 347.5 3686 347.5C3688.98 347.5 3691.85 348.685 3693.95 350.795C3696.06 352.905 3697.25 355.766 3697.25 358.75V381.25C3697.25 406.156 3688.07 430.189 3671.47 448.754C3654.86 467.319 3632 479.114 3607.25 481.885V516.25H3652.25C3655.23 516.25 3658.1 517.435 3660.2 519.545C3662.31 521.655 3663.5 524.516 3663.5 527.5C3663.5 530.484 3662.31 533.345 3660.2 535.455C3658.1 537.565 3655.23 538.75 3652.25 538.75H3539.75C3536.77 538.75 3533.9 537.565 3531.8 535.455C3529.69 533.345 3528.5 530.484 3528.5 527.5C3528.5 524.516 3529.69 521.655 3531.8 519.545C3533.9 517.435 3536.77 516.25 3539.75 516.25H3584.75V481.885C3560 479.114 3537.14 467.319 3520.53 448.754C3503.93 430.189 3494.75 406.156 3494.75 381.25V358.75C3494.75 355.766 3495.94 352.905 3498.05 350.795C3500.15 348.685 3503.02 347.5 3506 347.5Z" fill="white"/>
</g>
</g>
<defs>
<clipPath id="clip0_146_83">
<rect width="5162" height="786" fill="white"/>
</clipPath>
<clipPath id="clip1_146_83">
<rect width="334" height="786" fill="white" transform="translate(779)"/>
</clipPath>
<clipPath id="clip2_146_83">
<rect width="714" height="757" fill="white" transform="translate(3239 14)"/>
</clipPath>
</defs>
</svg>
