<svg width="425" height="425" viewBox="0 0 425 425" fill="none" xmlns="http://www.w3.org/2000/svg">
<rect width="425" height="425" rx="99.6094" fill="url(#paint0_radial_143_12)"/>
<rect x="29.8828" y="28.2227" width="364.404" height="367.725" rx="74.707" fill="url(#paint1_linear_143_12)"/>
<g clip-path="url(#clip0_143_12)">
<path d="M257.055 70.2056C256.016 70.3531 254.339 69.9223 253.442 70.3886C253.359 70.4299 253.477 72.1121 253.442 72.1947C241.984 98.768 229.037 140.068 221.641 168.312C221.121 170.283 218.234 180.796 219.651 181.498C220.354 181.846 222.91 181.038 223.848 181.811C223.955 181.468 224.061 181.12 224.167 180.778L227.963 184.39L268.802 184.03C268.726 184.998 269.015 185.022 269.346 185.836C268.484 185.766 268.129 185.766 267.356 186.196C262.397 188.971 237.822 228.736 232.845 236.421L195.625 236.604C195.648 239.007 195.188 241.55 194.538 243.829C188.606 264.688 182.041 285.536 175.565 306.16L174.302 304.714C180.725 282.142 187.106 259.53 193.458 236.964L190.926 234.615C191.286 234.497 195.264 230.955 194.898 230.1C194.834 229.952 192.372 228.541 192.189 228.476C189.845 227.632 160.582 227.532 157.855 228.116C153.368 229.073 156.84 230.253 156.952 230.465C157.365 231.245 156.373 233.73 157.312 234.621C153.699 234.214 152.784 232.543 149.36 231.552L149 230.105L254.888 65.6901L256.695 65.3301C255.963 66.9474 256.943 68.6591 257.055 70.2056Z" fill="#FCC845"/>
<path d="M232.839 236.422C208.919 273.366 185.79 310.918 163.091 348.618C163.522 351.699 164.573 350.217 167.035 350.76C166.51 351.569 165.984 352.378 165.459 353.192L160.742 352.773C164.402 336.748 169.75 320.669 174.296 304.715L175.559 306.161C182.035 285.537 188.6 264.689 194.533 243.83C195.182 241.546 195.642 239.002 195.619 236.605L232.839 236.422Z" fill="#FAAD46"/>
<path d="M269.34 185.83C269.865 187.14 270.839 190.298 270.426 191.609L167.041 350.759C164.579 350.216 163.528 351.697 163.097 348.616C185.796 310.917 208.925 273.365 232.845 236.421C237.822 228.736 262.403 188.97 267.356 186.196C268.129 185.765 268.484 185.759 269.346 185.836L269.34 185.83Z" fill="#9794C4"/>
<path d="M257.056 70.206C257.191 72.0476 257.658 71.3157 257.056 74.1784C250.19 106.908 234.428 147.523 224.274 180.424L224.168 180.772C224.062 181.115 223.956 181.463 223.849 181.805C222.911 181.032 220.349 181.841 219.652 181.493C218.235 180.79 221.122 170.278 221.641 168.306C229.038 140.063 241.984 98.7684 253.443 72.1893C253.478 72.1066 253.36 70.4244 253.443 70.3831C254.346 69.9168 256.017 70.3477 257.056 70.2001V70.206Z" fill="#BCC7DD"/>
<path d="M190.92 234.614C189.326 235.14 160.464 234.969 157.312 234.614C156.373 233.723 157.365 231.238 156.952 230.459C156.84 230.247 153.369 229.066 157.855 228.11C160.577 227.531 189.839 227.632 192.189 228.47C192.372 228.535 194.84 229.951 194.899 230.093C195.265 230.949 191.286 234.491 190.926 234.609L190.92 234.614Z" fill="#F59A41"/>
<path d="M221.044 181.699C232.06 145.582 246.328 110.515 254.398 73.6236C255.06 70.7845 255.662 67.5853 256.648 65C256.943 65.5784 260.39 72.3073 260.39 72.3073C251.96 110.166 237.645 146.384 226.222 183.299C225.088 186.663 220.082 185.193 221.044 181.699Z" fill="#7699D0"/>
<path d="M273.153 193.386L166.81 357.081L165.039 359.808L159.584 356.267L161.355 353.54L267.698 189.845C268.365 188.635 269.032 187.395 269.676 186.173C270.491 186.492 273.46 190.258 274.157 191.373C274.239 191.515 274.28 191.615 274.275 191.657C274.033 192.029 273.46 192.92 273.153 193.386Z" fill="#5A67B0"/>
<path d="M191.887 237.531C190.943 237.779 189.91 237.82 188.965 237.861C186.887 237.932 184.608 237.979 182.554 237.997C175.24 238.05 166.621 238.009 159.295 237.802C157.955 237.743 156.367 237.631 155.039 237.673C154.2 236.716 150.717 232.821 149.531 231.475C151.556 231.522 156.054 231.487 158.516 231.622C160.346 231.717 163.888 231.77 165.759 231.805C173.422 231.9 182.702 231.935 189.957 231.705C191.267 231.717 193.788 231.758 194.809 231.764C194.06 232.886 193.711 237.189 192.537 237.537C192.36 237.537 192.076 237.537 191.887 237.537V237.531Z" fill="#4852A3"/>
</g>
<defs>
<radialGradient id="paint0_radial_143_12" cx="0" cy="0" r="1" gradientUnits="userSpaceOnUse" gradientTransform="translate(31.5 32) rotate(44.863) scale(516.009)">
<stop stop-color="#FCC845"/>
<stop offset="0.166887" stop-color="#FAAD46"/>
<stop offset="0.589218" stop-color="#F59A41"/>
<stop offset="0.773643" stop-color="#9794C4"/>
<stop offset="0.925406" stop-color="#5A67B0"/>
<stop offset="1" stop-color="#5A67B0"/>
</radialGradient>
<linearGradient id="paint1_linear_143_12" x1="29.8828" y1="28.2227" x2="394.558" y2="395.679" gradientUnits="userSpaceOnUse">
<stop stop-color="#FFFFE3"/>
<stop offset="0.244656" stop-color="#FFEFE0"/>
<stop offset="0.456583" stop-color="#FFE5DC"/>
<stop offset="0.735603" stop-color="#CEE6FF"/>
<stop offset="1" stop-color="#D4CEFF"/>
</linearGradient>
<clipPath id="clip0_143_12">
<rect width="125.275" height="294.808" fill="white" transform="translate(149 65)"/>
</clipPath>
</defs>
</svg>
