<svg width="1269" height="263" viewBox="0 0 1269 263" fill="none" xmlns="http://www.w3.org/2000/svg">
<path d="M150.925 5.29248V257.684H85.2832V151.671H65.6414V257.684H0V5.29248H65.6414V95.5594H85.2832V5.29248H150.925Z" fill="black"/>
<path d="M317.134 5.29248L269.267 166.331V257.684H208.46V166.331L162.302 5.29248H222.602C232.025 54.5579 237.337 87.7151 238.538 104.75C242.171 77.8157 248.265 44.673 256.819 5.29248H317.12H317.134Z" fill="black"/>
<path d="M328.352 5.29248H394.456C412.332 5.29248 426.083 6.69634 435.694 9.50407C445.305 12.3118 452.528 16.3642 457.362 21.6612C462.197 26.9583 465.468 33.3842 467.19 40.9101C468.898 48.4504 469.767 60.1155 469.767 75.9053V97.8895C469.767 113.998 468.102 125.75 464.773 133.116C461.444 140.498 455.336 146.156 446.449 150.107C437.561 154.059 425.938 156.027 411.594 156.027H393.979V257.669H328.337V5.29248H328.352ZM393.993 48.4794V112.71C395.861 112.811 397.482 112.869 398.828 112.869C404.849 112.869 409.047 111.393 411.377 108.426C413.722 105.459 414.88 99.3079 414.88 89.944V69.2189C414.88 60.5931 413.534 54.9777 410.827 52.387C408.12 49.7964 402.504 48.4938 393.993 48.4938V48.4794Z" fill="black"/>
<path d="M983.507 153.089C983.507 178.445 982.913 196.406 981.712 206.957C980.511 217.507 976.776 227.146 970.48 235.873C964.198 244.6 955.687 251.301 944.99 255.99C934.279 260.665 921.817 263.01 907.574 263.01C893.331 263.01 881.925 260.795 871.171 256.381C860.416 251.967 851.761 245.338 845.218 236.51C838.661 227.682 834.768 218.057 833.523 207.666C832.278 197.274 831.656 179.082 831.656 153.103V109.916C831.656 84.5599 832.249 66.5992 833.451 56.0485C834.637 45.4978 838.386 35.8589 844.683 27.1318C850.965 18.4047 859.461 11.7038 870.172 7.02908C880.883 2.35436 893.346 0.00976562 907.589 0.00976562C921.093 0.00976562 933.237 2.22411 943.992 6.63831C954.746 11.0525 963.402 17.6811 969.944 26.5095C976.501 35.3379 980.395 44.9623 981.64 55.3538C982.884 65.7453 983.507 83.9376 983.507 109.916V153.103V153.089ZM917.865 70.145C917.865 58.4076 917.214 50.8962 915.911 47.6109C914.609 44.34 911.931 42.7046 907.878 42.7046C904.448 42.7046 901.828 44.0361 900.004 46.6846C898.18 49.3331 897.283 57.1484 897.283 70.145V187.997C897.283 202.658 897.876 211.689 899.078 215.119C900.264 218.549 903.058 220.257 907.415 220.257C911.772 220.257 914.739 218.289 915.984 214.338C917.228 210.387 917.851 200.979 917.851 186.116V70.145H917.865Z" fill="black"/>
<path d="M1140.19 5.29199V55.8021H1101.21V257.698H1035.57V55.8021H996.751V5.29199H1140.19Z" fill="black"/>
<path d="M1155.17 5.29199H1264.63V55.8021H1220.81V103.664H1261.82V151.685H1220.81V207.188H1269V257.698H1155.19V5.29199H1155.17Z" fill="black"/>
<path d="M605.855 132.205L630.563 5.24902L523.669 5.29244H488.641V257.684H554.283V143.884C563.329 143.884 568.916 145.491 571.044 148.718C573.172 151.945 574.243 160.311 574.243 173.814V257.684H630.244L645.877 132.19H605.87L605.855 132.205ZM574.229 81.8392C574.229 92.9543 572.752 99.5249 569.785 101.566C566.818 103.592 561.65 104.605 554.268 104.605V48.4793C561.853 48.4793 567.078 49.724 569.944 52.2133C572.81 54.7026 574.229 59.9563 574.229 67.9597V81.8392Z" fill="black"/>
<path d="M752.278 5.29258V118.948L715.484 5.29258H708.102V5.22021L670.295 5.23469L653.823 77.1356L654.055 78.1343H693.512L630.577 257.698H635.195H660.612H708.218H715.484V142.958L749.629 257.698H807.165V5.29258H752.278Z" fill="black"/>
</svg>
